<?xml version="1.0" encoding="UTF-8"?>
<svg xmlns="http://www.w3.org/2000/svg" xmlns:xlink="http://www.w3.org/1999/xlink" style="display: none;">
  <!-- Envelope Icon -->
  <symbol id="envelope" viewBox="0 0 512 512" preserveAspectRatio="xMidYMid meet">
    <path fill="currentColor" d="M502.3 190.8c3.9-3.1 9.7-.2 9.7 5.7V400c0 26.5-21.5 48-48 48H48c-26.5 0-48-21.5-48-48V196.5c0-5.8 5.7-8.8 9.7-5.7C73.1 241.9 152.4 318.4 224 352.4c72.4-34 151.7-110.5 278.3-161.6zM48 80h416c26.5 0 48 21.5 48 48v41.3c-23 17.6-102.4 94.1-174 140.7-72.4-46.6-151.4-123.1-174-140.7V128c0-26.5 21.5-48 48-48z"/>
  </symbol>
  
  <!-- GitHub Icon -->
  <symbol id="github" viewBox="0 0 496 512" preserveAspectRatio="xMidYMid meet">
    <path fill="currentColor" d="M165.9 397.4c0 2-2.3 3.6-5.2 3.6-3.3.3-5.6-1.3-5.6-3.6 0-2 2.3-3.6 5.2-3.6 3-.3 5.6 1.3 5.6 3.6zM134.8 328c-.2 2.1-1.4 3.6-3.6 3.6-2 0-3.6-1.9-3.9-4-3.7-1-6.2-2.3-8.7-5.7-.2-.2-.2-.5 0-.7.3-.2.9 0 1.1.2 2.5 3.1 4 4 6.5 5.1l1.4-8.1c-3.3-.8-6.4-2.4-8.7-5.3-2.1-2.6-3.2-5.5-3-8.5.2-4 3.3-7.6 7.2-7.6 4 0 7 3.5 7.3 7.6.6 2 .3 4 1.4 5.5 1.3 1.8 3.5 2.5 5.5 2.5 2.2 0 4.1-1 5.5-2.5 1.1-1.5.8-3.5 1.4-5.5.3-4.1 3.3-7.6 7.3-7.6 3.9 0 7 3.6 7.2 7.6.2 3-1 5.9-3 8.5-2.3 2.9-5.4 4.5-8.7 5.3l1.4 8.1c2.5-1.1 4-2 6.5-5.1.2-.2.8-.4 1.1-.2.2.2.2.5 0 .7-2.5 3.4-5.1 4.7-8.7 5.7zm77.7-98.4c-.2-.2-.9 0-1.1.2-2.5 3.1-4 4-6.5 5.1l1.4 8.1c3.3-.8 6.4-2.4 8.7-5.3 2.1-2.6 3.2-5.5 3-8.5-.2-4-3.3-7.6-7.2-7.6-4 0-7 3.5-7.3 7.6-.6 2-.3 4-1.4 5.5-1.3 1.8-3.5 2.5-5.5 2.5-2.2 0-4.1-1-5.5-2.5-1.1-1.5-.8-3.5-1.4-5.5-.3-4.1-3.3-7.6-7.3-7.6-3.9 0-7 3.6-7.2 7.6-.2 3 1 5.9 3 8.5 2.3 2.9 5.4 4.5 8.7 5.3l-1.4 8.1c-2.5-1.1-4-2-6.5-5.1-.2-.2-.8-.4-1.1-.2-.2.2-.2.5 0 .7 2.5 3.4 5.1 4.7 8.7 5.7 3.7-1 6.2-2.3 8.7-5.7.2-.2.2-.5 0-.7zM496 256c0 137-111 248-248 248S0 393 0 256 111 8 248 8s248 111 248 248zm-141.4-106.5c-.3-4-3.3-7.6-7.2-7.6-4 0-7 3.5-7.3 7.6-.6 2-.3 4-1.4 5.5-1.3 1.8-3.5 2.5-5.5 2.5-2.2 0-4.1-1-5.5-2.5-1.1-1.5-.8-3.5-1.4-5.5-.3-4.1-3.3-7.6-7.3-7.6-3.9 0-7 3.6-7.2 7.6-.2 3 1 5.9 3 8.5 2.3 2.9 5.4 4.5 8.7 5.3l-1.4 8.1c-2.5-1.1-4-2-6.5-5.1-.2-.2-.8-.4-1.1-.2-.2.2-.2.5 0 .7 2.5 3.4 5.1 4.7 8.7 5.7 3.7-1 6.2-2.3 8.7-5.7.2-.2.2-.5 0-.7l1.4-8.1c3.3.8 6.4 2.4 8.7 5.3 2.1 2.6 3.2 5.5 3 8.5"/>
  </symbol>
  
  <!-- Google Scholar Icon -->
  <symbol id="google" viewBox="0 0 488 512" preserveAspectRatio="xMidYMid meet">
    <path fill="currentColor" d="M488 261.8C488 403.3 391.1 504 248 504 110.8 504 24 393.2 24 256c0-137 87-243.5 216.4-243.5 61.3 0 109.7 25 142.9 61.2 10.1 11.1 7.4 25.9-3.7 35.5-10.5 9-26.8 5.1-36.8-4.9-26-34.4-63.2-52.3-102.4-52.3-73.1 0-129.3 50.5-129.3 113.9 0 75.5 41.5 139.9 112.5 139.9 50 0 84.3-25.8 106.4-59.4h-105V265c0-16.5 12.4-28.8 28.8-28.8h115.7c16.5 0 28.8 12.4 28.8 28.8v87.8z"/>
  </symbol>
  
  <!-- LinkedIn Icon -->
  <symbol id="linkedin" viewBox="0 0 448 512" preserveAspectRatio="xMidYMid meet">
    <path fill="currentColor" d="M416 32H31.9C14.3 32 0 46.5 0 64.3v383.4C0 465.5 14.3 480 31.9 480H416c17.6 0 32-14.5 32-32.3V64.3c0-17.8-14.4-32.3-32-32.3zM135.4 416H69V202.2h66.4V416zm-33.2-243c-21.3 0-38.5-17.3-38.5-38.5S80.9 96 102.2 96c21.3 0 38.5 17.3 38.5 38.5 0 21.3-17.2 38.5-38.5 38.5zm282.1 243h-66.4V312c0-24.8-.5-56.7-34.5-56.7-34.6 0-39.9 27-39.9 54.9V416h-66.4V202.2h63.7v29.2h.9c8.9-16.8 30.6-34.5 63-34.5 67.3 0 79.7 44.3 79.7 101.9V416z"/>
  </symbol>
  
  <!-- YouTube Icon -->
  <symbol id="youtube" viewBox="0 0 576 512" preserveAspectRatio="xMidYMid meet">
    <path fill="currentColor" d="M549.655 124.083c-6.281-23.65-24.787-42.276-48.284-48.597C458.781 64 288 64 288 64S117.22 64 74.629 75.486c-23.497 6.322-42.003 24.947-48.284 48.597-11.412 42.867-11.412 132.305-11.412 132.305s0 89.438 11.412 132.305c6.281 23.65 24.787 41.5 48.284 47.821C117.22 448 288 448 288 448s170.78 0 213.371-11.486c23.497-6.321 42.003-24.171 48.284-47.821 11.412-42.867 11.412-132.305 11.412-132.305s0-89.438-11.412-132.305zm-317.51 213.508V175.185l142.739 81.205-142.739 81.201z"/>
  </symbol>
  
  <!-- Graduation Cap Icon -->
  <symbol id="graduation-cap" viewBox="0 0 640 512" preserveAspectRatio="xMidYMid meet">
    <path fill="currentColor" d="M622.3 271.1l-50.3-316.9c-1.5-9.5-9.5-16.3-19.4-16.3H327.4c0-21.3-10.8-32-32-32s-32 10.7-32 32H87.4c-9.8 0-17.9 6.8-19.4 16.3L17.7 271.1c-6 37.9 24.8 72.4 64.1 72.4h26.5l6.4 90.6C115.3 475.8 136.1 496 161.1 496h317.8c25 0 45.7-20.2 46.4-91.9l6.4-90.6h26.5c39.3 0 70.1-34.5 64.1-72.4zM324.1 431H316c-4.6 0-9-3.6-9-8.6v-52c0-4.9 4.4-8.6 9-8.6h8.1c4.6 0 9 3.6 9 8.6v52c0 5-4.4 8.6-9 8.6zm71 0h-8.1c-4.6 0-9-3.6-9-8.6v-52c0-4.9 4.4-8.6 9-8.6h8.1c4.6 0 9 3.6 9 8.6v52c0 5-4.4 8.6-9 8.6zm71 0h-8.1c-4.6 0-9-3.6-9-8.6v-52c0-4.9 4.4-8.6 9-8.6h8.1c4.6 0 9 3.6 9 8.6v52c0 5-4.4 8.6-9 8.6zM320 112.2c0-11 9-20 20-20h160c11 0 20 9 20 20v12H320v-12z"/>
  </symbol>
  
  <!-- Building Icon -->
  <symbol id="building" viewBox="0 0 448 512" preserveAspectRatio="xMidYMid meet">
    <path fill="currentColor" d="M436 480h-20V24c0-14.4-17.3-24-27.6-12.7L27.9 192H20c-11 0-20 8.9-20 20v40c0 11.1 9 20 20 20h7.9L454.5 499.3c10.3 11.4 27.6 1.4 27.6-12.7V480zM56 432c23.3 0 42-18.7 42-42s-18.7-42-42-42-42 18.7-42 42 18.7 42 42 42zm0-64c12.1 0 22 9.9 22 22s-9.9 22-22 22-22-9.9-22-22 9.9-22 22-22z"/>
  </symbol>
  
  <!-- Map Marker Icon -->
  <symbol id="map-marker" viewBox="0 0 384 512" preserveAspectRatio="xMidYMid meet">
    <path fill="currentColor" d="M172.268 501.67C26.97 291.031 0 269.413 0 192 0 85.961 85.961 0 192 0s192 85.961 192 192c0 77.413-26.97 99.031-172.268 309.67-9.535 13.774-29.93 13.773-39.464 0zM192 272c44.183 0 80-35.817 80-80s-35.817-80-80-80-80 35.817-80 80 35.817 80 80 80z"/>
  </symbol>
  
  <!-- Info Icon -->
  <symbol id="info" viewBox="0 0 192 512" preserveAspectRatio="xMidYMid meet">
    <path fill="currentColor" d="M20 424.229h20V279.771H20zM142.857 24h-26.143c-16.541 0-29.714 13.172-29.714 29.714v101.857H54V53.714C54 37.172 40.828 24 24.286 24H0v51.43h51.429v347.429H0V512h142.857V464H91.429V53.714C91.429 37.172 104.6 24 121.143 24z"/>
  </symbol>
</svg>
